<?xml version="1.0" standalone="no"?>
<!DOCTYPE svg PUBLIC "-//W3C//DTD SVG 20010904//EN"
 "http://www.w3.org/TR/2001/REC-SVG-20010904/DTD/svg10.dtd">
<svg version="1.0" xmlns="http://www.w3.org/2000/svg"
 width="1050.000000pt" height="566.000000pt" viewBox="0 0 1050.000000 566.000000"
 preserveAspectRatio="xMidYMid meet">

<g transform="translate(0.000000,566.000000) scale(0.100000,-0.100000)"
fill="#000000" stroke="none">
<path d="M2645 5184 c-11 -1 -69 -8 -130 -14 -382 -38 -761 -180 -1088 -406
-339 -235 -613 -559 -789 -934 -104 -221 -187 -509 -203 -710 l-6 -75 235
-235 236 -235 259 259 c215 215 261 265 266 294 10 53 64 210 93 272 119 250
295 450 527 597 74 47 250 127 325 147 36 10 79 23 95 28 26 8 255 38 295 38
8 0 -95 110 -230 245 l-245 245 238 238 c130 130 237 240 237 245 0 7 -72 8
-115 1z"/>
<path d="M7970 4946 l245 -246 -245 -245 -245 -245 55 0 c200 -1 491 -91 674
-208 309 -199 511 -477 611 -842 l18 -65 256 -257 256 -258 238 238 237 237
-6 60 c-11 113 -59 330 -100 452 -182 541 -552 1001 -1039 1289 -96 57 -135
77 -235 122 -265 120 -542 186 -870 208 l-95 6 245 -246z"/>
<path d="M2765 4934 l-230 -234 258 -258 257 -257 83 -22 c255 -66 501 -216
664 -405 43 -51 112 -131 153 -179 41 -48 122 -142 180 -209 58 -67 139 -162
180 -210 152 -178 204 -235 214 -237 6 -1 40 33 76 76 36 43 119 140 185 216
66 76 154 177 195 226 41 48 101 117 134 153 l59 66 -24 29 c-13 16 -71 84
-129 151 -58 67 -136 159 -175 204 -286 337 -379 438 -501 545 -166 147 -378
288 -554 368 -82 38 -238 100 -285 115 -171 51 -330 85 -433 92 l-77 4 -230
-234z"/>
<path d="M7380 5163 c-125 -13 -357 -75 -517 -136 -340 -132 -685 -371 -914
-634 -51 -60 -96 -110 -99 -113 -3 -3 -39 -45 -80 -94 -41 -48 -109 -128 -150
-176 -41 -48 -120 -140 -175 -205 -98 -115 -169 -198 -330 -386 -44 -51 -108
-124 -142 -162 -35 -38 -63 -73 -63 -78 0 -5 147 -9 360 -9 l360 0 0 -325 0
-325 53 58 c28 32 88 100 132 151 44 52 114 133 155 181 70 82 175 203 410
473 115 133 220 255 320 374 163 195 408 345 682 418 l68 18 257 253 258 253
-235 235 c-260 261 -230 242 -350 229z"/>
<path d="M4679 2914 c-41 -48 -108 -126 -149 -174 -41 -48 -122 -143 -180
-210 -58 -67 -127 -147 -154 -178 -464 -543 -534 -613 -733 -730 -172 -101
-451 -182 -631 -182 l-48 0 246 -245 245 -245 -245 -246 -245 -246 90 7 c296
21 497 63 735 151 267 99 499 239 725 435 121 105 164 150 292 300 54 63 152
178 218 253 66 76 154 178 195 226 41 48 129 150 195 225 66 76 141 162 167
193 l48 56 2 342 3 342 -50 6 c-27 3 -185 6 -351 6 l-300 0 -75 -86z"/>
<path d="M1142 2570 l-242 -245 -242 243 c-133 133 -244 242 -246 242 -5 0 5
-130 19 -255 51 -456 234 -883 533 -1245 256 -310 621 -567 998 -701 183 -65
376 -111 518 -124 l75 -6 235 235 235 236 -255 255 -255 254 -120 36 c-427
129 -750 423 -910 830 -48 122 -90 312 -97 445 l-3 45 -243 -245z"/>
<path d="M9110 2786 c0 -46 -29 -236 -46 -301 -91 -350 -318 -659 -619 -841
-120 -73 -305 -148 -416 -169 -30 -6 -78 -49 -295 -266 l-259 -259 235 -236
235 -235 75 6 c169 15 436 87 630 170 582 250 1038 721 1274 1315 42 105 47
119 89 270 32 118 64 320 73 471 l6 104 -246 -245 -246 -245 -245 245 c-219
219 -245 242 -245 216z"/>
<path d="M5925 2671 c-22 -26 -94 -110 -160 -186 -66 -75 -156 -179 -200 -231
-44 -51 -115 -134 -158 -184 -70 -80 -77 -93 -66 -108 20 -25 198 -234 419
-492 58 -68 132 -155 166 -194 230 -269 546 -499 869 -631 149 -61 156 -64
265 -94 197 -54 428 -91 567 -91 l78 0 -243 243 -243 244 246 244 247 244 -39
2 c-289 18 -543 104 -754 256 -126 91 -179 140 -282 261 -179 211 -233 274
-352 411 -66 76 -149 172 -183 214 -72 86 -123 141 -131 141 -4 0 -24 -22 -46
-49z"/>
</g>
</svg>
