<?xml version="1.0" standalone="no"?>
<!DOCTYPE svg PUBLIC "-//W3C//DTD SVG 20010904//EN"
 "http://www.w3.org/TR/2001/REC-SVG-20010904/DTD/svg10.dtd">
<svg version="1.0" xmlns="http://www.w3.org/2000/svg"
 width="1050.000000pt" height="566.000000pt" viewBox="0 0 1050.000000 566.000000"
 preserveAspectRatio="xMidYMid meet">

<g transform="translate(0.000000,566.000000) scale(0.100000,-0.100000)"
fill="#000000" stroke="none">
<path d="M7555 3919 c-232 -30 -460 -143 -630 -314 -430 -429 -430 -1121 0
-1550 371 -372 945 -429 1385 -137 574 380 654 1199 165 1687 -243 243 -577
357 -920 314z"/>
<path d="M2655 3909 c-232 -30 -460 -143 -630 -314 -430 -429 -430 -1121 0
-1550 429 -430 1121 -430 1550 0 430 429 430 1121 0 1550 -243 243 -577 357
-920 314z"/>
</g>
</svg>
