<?xml version="1.0" standalone="no"?>
<!DOCTYPE svg PUBLIC "-//W3C//DTD SVG 20010904//EN"
 "http://www.w3.org/TR/2001/REC-SVG-20010904/DTD/svg10.dtd">
<svg version="1.0" xmlns="http://www.w3.org/2000/svg"
 width="1050.000000pt" height="566.000000pt" viewBox="0 0 1050.000000 566.000000"
 preserveAspectRatio="xMidYMid meet">

<g transform="translate(0.000000,566.000000) scale(0.100000,-0.100000)"
fill="#000000" stroke="none">
<path d="M6757 4772 l-58 -67 48 -45 c27 -25 79 -71 115 -103 l66 -58 48 51
c74 80 80 89 60 108 -15 15 -19 13 -61 -28 l-45 -44 -25 25 -25 25 36 42 c35
41 36 44 18 57 -26 20 -27 20 -64 -26 l-33 -41 -25 25 -25 25 37 45 c34 42 35
45 18 60 -10 10 -20 17 -23 16 -2 0 -30 -30 -62 -67z"/>
<path d="M8553 4650 c-62 -56 -113 -105 -113 -109 0 -5 21 -32 46 -60 81 -90
153 -111 228 -68 70 39 99 100 84 173 -9 43 -92 157 -118 161 -8 2 -66 -42
-127 -97z m170 -33 c23 -45 17 -78 -22 -118 -32 -31 -69 -44 -104 -35 -29 7
-69 44 -65 60 5 20 141 136 157 133 8 -1 23 -19 34 -40z"/>
<path d="M3617 4575 c-96 -98 -103 -107 -90 -125 19 -27 34 -25 68 10 33 34
47 37 66 13 24 -29 75 -44 106 -32 49 18 73 49 73 91 0 33 -8 47 -51 94 -29
30 -56 54 -60 54 -5 0 -55 -47 -112 -105z m145 8 c22 -19 24 -56 4 -72 -20
-17 -67 -10 -80 11 -8 14 -5 23 19 48 34 35 33 35 57 13z"/>
<path d="M6622 4614 c-63 -50 -79 -114 -39 -160 29 -33 77 -35 134 -4 47 25
50 25 63 -1 10 -18 6 -26 -30 -60 -35 -33 -39 -42 -30 -59 14 -27 23 -25 64
10 121 107 52 242 -90 173 -21 -11 -46 -19 -54 -19 -29 2 -22 37 14 71 34 32
35 34 18 54 l-17 21 -33 -26z"/>
<path d="M1519 4425 c-30 -35 -54 -68 -54 -73 0 -9 216 -202 225 -201 9 1 115
130 115 141 0 6 -8 16 -17 21 -14 9 -24 3 -57 -33 l-40 -45 -26 26 -27 27 36
39 36 40 -21 19 c-21 19 -21 18 -57 -23 -37 -42 -37 -42 -59 -24 -29 25 -29
30 7 71 34 41 37 56 12 69 -16 8 -27 -1 -73 -54z"/>
<path d="M3810 4385 l-105 -105 65 -65 c60 -59 66 -63 85 -49 18 14 17 16 -25
59 l-44 45 90 90 90 90 -21 20 c-12 11 -23 20 -26 20 -2 0 -51 -47 -109 -105z"/>
<path d="M8830 4423 c-41 -36 -96 -85 -122 -108 l-47 -43 65 -76 c57 -67 67
-75 84 -66 27 15 25 25 -15 74 -42 52 -43 60 -9 83 27 17 27 17 66 -27 l39
-44 21 22 21 21 -36 40 c-21 23 -37 45 -37 50 0 5 12 17 27 26 l27 18 39 -43
c31 -36 41 -42 55 -33 30 18 23 37 -41 105 l-62 68 -75 -67z"/>
<path d="M6387 4357 l-25 -33 79 -129 c43 -72 82 -131 87 -133 5 -1 17 7 27
19 19 20 19 21 -2 58 l-22 38 28 27 c31 30 41 31 81 11 28 -14 30 -14 49 14
l20 28 -42 21 c-88 43 -239 112 -247 112 -4 0 -19 -15 -33 -33z m138 -84 c20
-12 20 -12 -2 -34 -12 -13 -24 -21 -26 -18 -2 2 -18 25 -36 51 l-31 47 37 -17
c21 -10 47 -23 58 -29z"/>
<path d="M8970 4189 c-148 -128 -136 -113 -116 -143 9 -14 20 -26 24 -26 5 0
27 16 49 35 l40 34 28 -29 c41 -42 76 -54 119 -40 64 21 94 87 65 143 -15 29
-89 117 -98 117 -3 0 -54 -41 -111 -91z m138 -11 c46 -59 -14 -123 -72 -77
l-27 22 32 33 c35 36 51 41 67 22z"/>
<path d="M4125 4246 c-11 -7 -69 -39 -130 -71 -60 -31 -112 -59 -114 -61 -3
-2 6 -15 19 -29 l23 -25 35 21 35 20 31 -30 30 -30 -17 -37 c-18 -36 -18 -37
5 -61 28 -30 25 -33 115 135 l65 124 -28 29 c-31 33 -41 35 -69 15z m-13 -115
l-29 -51 -24 26 c-20 21 -21 27 -9 34 8 5 19 10 23 10 5 0 20 9 34 20 15 11
28 18 30 16 3 -2 -9 -27 -25 -55z"/>
<path d="M1372 4233 c-36 -17 -122 -108 -122 -128 0 -14 202 -195 218 -195 14
0 78 73 98 112 27 51 23 110 -10 153 -55 71 -117 91 -184 58z m114 -87 c24
-24 34 -43 34 -66 0 -33 -27 -90 -43 -90 -14 0 -147 123 -147 136 0 21 53 53
89 54 25 0 42 -9 67 -34z"/>
<path d="M6204 4154 l-58 -67 79 -74 c44 -41 96 -87 116 -103 l36 -30 63 70
c51 58 60 73 50 85 -20 24 -36 18 -74 -27 l-35 -43 -28 27 -27 28 32 33 c36
37 39 49 17 67 -13 11 -22 7 -55 -25 l-40 -39 -25 24 -25 24 37 38 c30 31 35
42 27 55 -19 30 -30 25 -90 -43z"/>
<path d="M4216 3989 l-109 -110 21 -22 22 -21 80 79 81 80 -25 -70 c-13 -38
-30 -94 -37 -123 -13 -51 -12 -53 12 -77 l24 -25 110 110 110 110 -23 22 -22
22 -71 -69 c-40 -39 -69 -61 -65 -51 3 10 18 59 32 109 l26 89 -28 29 -29 29
-109 -111z"/>
<path d="M9200 3992 c-42 -37 -97 -86 -124 -109 l-48 -42 63 -76 c35 -41 66
-75 70 -75 3 0 14 9 24 20 18 20 18 21 -26 66 l-44 45 50 44 c28 24 73 63 102
87 29 24 52 46 53 50 0 4 -10 18 -22 32 l-23 25 -75 -67z"/>
<path d="M1145 3981 c-52 -32 -68 -58 -73 -116 -6 -72 25 -122 93 -154 63 -29
111 -22 159 25 77 75 53 199 -48 245 -52 24 -93 24 -131 0z m112 -71 c26 -17
53 -62 53 -89 0 -31 -35 -61 -71 -61 -23 0 -42 10 -70 39 -87 87 -16 176 88
111z"/>
<path d="M6000 3925 c-14 -15 -20 -29 -14 -34 5 -4 55 -49 111 -99 56 -51 106
-92 110 -92 5 0 35 29 67 66 57 64 58 65 40 86 -19 20 -19 20 -60 -27 l-41
-46 -64 57 c-35 32 -78 71 -95 86 l-30 28 -24 -25z"/>
<path d="M5864 3774 l-58 -67 79 -74 c44 -41 96 -87 116 -103 l36 -29 62 70
c52 57 61 72 51 84 -20 24 -36 18 -74 -27 l-35 -43 -27 27 -27 27 31 36 c36
41 38 48 17 65 -13 11 -22 7 -55 -25 l-40 -39 -25 24 -25 24 37 38 c30 31 35
42 27 55 -19 30 -30 25 -90 -43z"/>
<path d="M9365 3808 c-44 -15 -104 -77 -117 -119 -28 -95 48 -199 144 -199 86
1 178 88 178 169 0 40 -39 111 -72 133 -32 21 -97 29 -133 16z m109 -79 c45
-35 26 -111 -37 -149 -109 -67 -179 59 -77 138 49 37 77 40 114 11z"/>
<path d="M971 3793 c-36 -25 -81 -103 -81 -140 0 -45 32 -106 71 -134 18 -12
52 -24 78 -27 41 -4 52 0 90 29 24 19 50 46 59 61 15 26 15 29 -1 45 -16 16
-19 14 -55 -25 -44 -47 -75 -53 -123 -25 -35 21 -63 75 -53 106 3 12 20 36 36
54 28 29 29 33 16 52 -14 19 -16 19 -37 4z"/>
<path d="M5676 3558 l-60 -61 36 -31 c19 -17 71 -64 115 -103 l80 -72 24 25
24 26 -45 39 -45 39 23 20 c24 20 24 20 75 -6 l51 -26 24 27 23 27 -51 24
c-29 13 -62 24 -74 24 -19 0 -23 6 -24 33 -1 41 -41 77 -85 77 -25 0 -43 -12
-91 -62z m112 -10 c16 -16 15 -49 -2 -70 -17 -23 -25 -23 -53 4 -27 26 -28 35
-6 60 19 21 44 23 61 6z"/>
<path d="M9620 3553 c-35 -102 -54 -135 -104 -181 -25 -23 -46 -45 -46 -49 0
-4 10 -17 21 -29 l22 -23 52 47 c54 46 84 58 213 78 48 8 52 21 19 52 l-23 22
-63 -21 c-34 -12 -64 -19 -67 -17 -2 3 10 33 27 68 l31 63 -29 29 -29 29 -24
-68z"/>
<path d="M7109 3215 c-63 -20 -132 -84 -166 -153 -25 -50 -28 -68 -28 -152 0
-84 3 -102 28 -152 54 -110 157 -167 281 -155 111 11 185 59 234 151 24 46 27
61 27 161 0 123 -16 171 -77 235 -67 68 -200 97 -299 65z m181 -130 c36 -35
60 -102 60 -170 0 -116 -53 -195 -137 -202 -63 -5 -103 19 -133 83 -49 100
-21 258 54 306 45 28 117 20 156 -17z"/>
<path d="M2063 3133 l-43 -4 0 -299 0 -299 57 -7 c31 -4 96 -4 144 -1 222 16
329 121 329 322 0 230 -149 318 -487 288z m206 -104 c62 -13 98 -40 122 -93
33 -73 19 -195 -28 -248 -29 -33 -93 -58 -150 -58 l-53 0 0 199 c0 182 2 200
18 204 29 8 39 7 91 -4z"/>
<path d="M7810 3044 c-19 -8 -45 -25 -57 -36 l-23 -21 0 31 0 32 -60 0 -60 0
0 -310 0 -310 70 0 70 0 0 110 0 111 28 -21 c85 -63 221 -16 266 90 51 125 10
276 -87 321 -50 22 -100 24 -147 3z m71 -104 c56 -31 66 -157 16 -208 -37 -37
-91 -36 -123 2 -20 22 -24 38 -24 87 0 60 18 113 42 122 23 9 69 7 89 -3z"/>
<path d="M8273 3048 c-48 -16 -94 -69 -100 -116 -8 -62 18 -96 107 -140 56
-28 76 -43 78 -60 5 -35 -37 -46 -111 -27 -33 8 -61 14 -62 13 -8 -8 -24 -82
-19 -89 9 -15 119 -31 172 -25 101 12 152 60 152 145 0 38 -5 49 -38 80 -21
20 -57 43 -80 50 -110 37 -80 110 32 77 l46 -14 10 37 c14 49 13 58 -7 66 -32
12 -147 14 -180 3z"/>
<path d="M2799 2966 c-87 -31 -135 -97 -146 -198 -8 -78 11 -136 62 -184 63
-61 146 -77 269 -52 l57 11 -7 41 c-9 55 -10 56 -47 45 -97 -28 -207 10 -207
70 0 7 47 11 139 11 131 0 140 1 146 20 16 49 -20 164 -63 203 -47 43 -136 57
-203 33z m109 -93 c12 -10 24 -30 28 -45 l6 -28 -81 0 c-93 0 -102 11 -52 61
34 33 69 37 99 12z"/>
<path d="M3171 2858 c23 -62 58 -160 79 -218 l37 -105 70 -3 70 -3 56 153 c31
84 68 184 82 221 l25 68 -72 -3 -72 -3 -13 -45 c-8 -25 -26 -94 -42 -155 -26
-101 -29 -107 -35 -75 -6 28 -43 162 -72 263 -5 14 -17 17 -79 17 l-74 0 40
-112z"/>
<path d="M4517 2230 c-79 -93 -85 -105 -59 -119 15 -8 24 -5 42 14 13 14 27
25 32 25 5 0 50 -36 100 -79 l92 -79 18 23 c10 13 18 27 17 32 0 4 -40 42 -90
83 -49 41 -89 78 -89 81 0 3 10 19 21 33 21 27 21 28 3 46 -19 18 -21 17 -87
-60z"/>
<path d="M5788 2209 c-88 -81 -96 -92 -85 -110 6 -10 16 -19 22 -19 5 0 40 30
78 68 l69 67 -32 -60 c-18 -33 -39 -70 -46 -82 -17 -27 -18 -45 -2 -61 9 -9
31 -1 95 34 46 25 83 42 83 39 0 -4 -27 -36 -60 -73 l-60 -65 21 -23 21 -22
46 56 c25 31 60 72 77 90 46 52 48 59 25 92 -12 17 -24 30 -28 29 -4 0 -38
-20 -77 -44 -38 -24 -71 -42 -73 -40 -2 2 15 38 39 80 l42 77 -29 29 -29 29
-97 -91z"/>
<path d="M9418 2144 c-32 -31 -58 -58 -58 -60 0 -3 39 -56 87 -119 l87 -113
62 56 c67 60 73 72 49 92 -13 11 -22 7 -53 -23 -21 -21 -41 -37 -44 -37 -3 0
-13 12 -23 26 -17 26 -16 27 21 65 36 37 37 40 21 56 -16 16 -19 15 -52 -17
-34 -33 -35 -33 -55 -15 -27 25 -26 33 17 77 30 31 34 40 23 53 -7 8 -15 15
-19 15 -3 0 -32 -25 -63 -56z"/>
<path d="M4377 2059 c-35 -27 -57 -69 -57 -111 1 -71 60 -96 140 -58 53 25 80
22 80 -10 0 -20 -44 -70 -61 -70 -14 0 -10 -23 6 -44 14 -19 17 -18 65 32 44
46 50 57 50 95 0 83 -61 108 -155 63 -27 -14 -53 -22 -57 -20 -19 12 -6 54 22
78 26 22 29 29 20 46 -13 25 -18 25 -53 -1z"/>
<path d="M9242 1977 c-75 -75 -81 -87 -59 -106 11 -8 19 -5 37 14 13 13 27 22
31 19 5 -3 37 -42 71 -87 33 -45 65 -86 69 -91 9 -10 49 20 49 35 0 5 -31 49
-70 100 -38 50 -70 94 -70 97 0 4 12 16 26 27 24 19 25 23 13 43 -8 12 -16 22
-19 22 -3 0 -38 -33 -78 -73z"/>
<path d="M6070 2009 c-85 -34 -124 -134 -80 -206 63 -104 203 -71 240 57 12
41 -15 110 -52 134 -31 20 -77 27 -108 15z m94 -71 c25 -35 19 -67 -18 -104
-43 -43 -87 -46 -112 -9 -14 21 -14 30 -4 55 16 39 65 80 95 80 13 0 31 -10
39 -22z"/>
<path d="M1163 1883 l-101 -108 36 -38 c41 -43 100 -77 132 -77 12 0 32 12 47
26 20 20 24 32 19 55 -5 26 -3 29 20 29 31 0 74 41 74 71 0 31 -35 83 -80 119
-21 16 -40 30 -42 30 -2 0 -50 -48 -105 -107z m153 1 c16 -24 16 -26 -3 -45
-16 -16 -24 -18 -46 -10 -33 13 -34 27 -5 58 27 29 34 29 54 -3z m-76 -125 c0
-28 -24 -41 -54 -29 -37 14 -43 37 -15 66 l23 24 23 -22 c13 -12 23 -29 23
-39z"/>
<path d="M4173 1825 c-29 -35 -53 -67 -53 -72 0 -7 205 -186 223 -194 4 -2 34
28 67 66 l59 70 -20 20 c-13 14 -22 16 -27 9 -4 -6 -22 -28 -40 -49 l-34 -38
-26 26 -26 26 33 42 c33 40 33 41 14 60 -19 19 -20 19 -52 -21 -17 -22 -35
-40 -39 -40 -4 0 -18 9 -31 19 l-24 19 36 44 c35 43 36 46 19 61 -10 10 -20
17 -23 16 -2 0 -28 -29 -56 -64z"/>
<path d="M6226 1745 c-78 -84 -86 -98 -75 -113 7 -9 15 -19 17 -22 2 -3 33 27
69 65 48 52 63 64 58 45 -3 -14 -16 -62 -28 -107 -21 -80 -21 -82 -2 -103 l19
-21 64 63 c35 35 77 80 94 101 29 36 30 39 14 55 -16 16 -21 13 -77 -46 -32
-34 -59 -60 -59 -58 0 3 11 46 25 97 l25 93 -22 23 c-12 13 -24 23 -28 23 -3
0 -46 -43 -94 -95z"/>
<path d="M9062 1807 c-12 -13 -22 -28 -22 -33 0 -14 99 -267 109 -277 4 -4 17
2 29 13 20 19 20 22 6 56 -15 36 -15 38 14 67 l30 29 31 -23 c30 -22 31 -22
51 -4 11 10 20 23 19 29 0 13 -215 166 -233 166 -7 0 -22 -10 -34 -23z m111
-129 c-9 -10 -20 -18 -24 -18 -7 0 -49 84 -49 97 0 2 20 -10 45 -28 43 -31 44
-33 28 -51z"/>
<path d="M1408 1732 c-84 -86 -98 -108 -98 -154 0 -29 8 -47 33 -73 69 -75
128 -62 241 54 l70 70 -25 27 -24 26 -70 -76 c-77 -82 -118 -102 -148 -71 -28
28 -19 54 41 118 99 107 96 100 69 125 l-23 22 -66 -68z"/>
<path d="M4000 1623 c-68 -80 -72 -87 -55 -100 26 -18 31 -17 53 12 11 14 23
25 27 25 3 0 48 -36 98 -79 l92 -80 22 21 c13 12 23 24 23 27 0 3 -43 42 -95
86 -52 44 -95 82 -95 86 0 3 11 16 25 29 23 22 24 25 8 42 -9 10 -19 18 -23
18 -3 0 -39 -39 -80 -87z"/>
<path d="M8893 1634 c-45 -22 -107 -92 -95 -107 5 -7 43 -58 86 -114 42 -57
80 -103 85 -103 4 0 16 9 26 20 17 18 16 21 -14 59 -35 44 -37 53 -16 71 13
11 23 8 62 -19 l46 -33 24 24 24 24 -45 32 c-24 18 -51 32 -60 32 -12 0 -16
10 -16 40 0 30 -7 47 -25 65 -28 29 -39 30 -82 9z m45 -66 c18 -18 15 -53 -7
-72 -17 -16 -20 -15 -44 17 -24 32 -25 35 -9 50 19 20 43 22 60 5z"/>
<path d="M6426 1534 c-87 -93 -88 -95 -71 -114 10 -11 22 -19 25 -18 4 2 46
45 95 96 86 90 87 93 70 112 -10 11 -21 20 -24 19 -3 0 -46 -43 -95 -95z"/>
<path d="M1686 1548 c-10 -13 -57 -62 -104 -110 l-87 -88 26 -25 25 -25 106
113 107 114 -23 22 c-28 26 -27 26 -50 -1z"/>
<path d="M6580 1535 c-11 -13 -9 -20 9 -38 11 -13 21 -28 21 -33 0 -5 -31 -41
-70 -79 -38 -38 -70 -74 -70 -79 0 -5 8 -18 18 -29 17 -19 19 -17 94 64 l77
84 25 -25 c24 -22 28 -22 42 -8 14 14 10 22 -51 87 -37 39 -71 71 -75 71 -4 0
-13 -7 -20 -15z"/>
<path d="M8678 1439 c-32 -28 -58 -55 -58 -60 0 -5 39 -61 87 -125 l86 -115
66 65 c62 62 65 67 48 83 -16 16 -19 15 -55 -20 -21 -20 -41 -37 -44 -37 -3 0
-13 12 -23 26 -17 26 -16 27 21 65 31 32 35 41 24 54 -18 22 -33 19 -65 -15
-27 -28 -30 -29 -47 -13 -25 23 -23 32 19 75 30 31 34 40 23 53 -7 8 -15 15
-19 15 -3 0 -32 -23 -63 -51z"/>
<path d="M1710 1355 l-105 -105 67 -67 c57 -57 69 -65 82 -54 23 20 20 31 -21
73 l-37 37 59 63 c32 35 70 75 85 90 26 24 27 28 14 47 -9 12 -21 21 -27 21
-7 0 -59 -47 -117 -105z"/>
<path d="M6712 1320 c-75 -34 -109 -116 -76 -185 42 -90 149 -100 216 -20 90
106 -15 261 -140 205z m100 -57 c36 -33 11 -109 -46 -137 -71 -34 -117 42 -65
108 35 45 80 57 111 29z"/>
<path d="M8525 1282 c-33 -21 -95 -81 -95 -93 0 -6 107 -152 167 -228 2 -3 13
5 26 17 15 16 19 26 12 36 -50 68 -49 60 -16 107 43 58 42 100 -3 145 -39 39
-50 41 -91 16z m59 -74 c13 -21 -3 -72 -24 -75 -8 -2 -25 13 -38 33 -19 29
-21 38 -11 50 16 19 59 14 73 -8z"/>
<path d="M1885 1190 c-98 -98 -99 -99 -84 -126 16 -30 78 -80 124 -99 51 -21
102 -8 150 39 77 73 74 134 -12 226 -30 33 -60 60 -67 60 -6 0 -56 -45 -111
-100z m154 -6 c33 -42 28 -90 -15 -130 -44 -42 -90 -45 -130 -10 l-28 23 64
72 c35 39 70 71 76 71 7 0 22 -12 33 -26z"/>
<path d="M6880 1065 l-95 -95 23 -22 22 -22 35 34 c32 31 37 33 51 18 14 -14
14 -19 -5 -56 -26 -50 -26 -64 -3 -85 17 -16 20 -14 45 37 15 29 27 58 27 64
0 7 9 12 21 12 32 0 56 17 67 48 13 37 -4 76 -55 124 l-39 38 -94 -95z m136
-39 c-8 -31 -40 -35 -68 -9 -18 16 -18 17 9 45 27 28 27 28 46 9 14 -14 18
-27 13 -45z"/>
<path d="M8335 1089 c-72 -19 -117 -112 -94 -190 15 -49 68 -105 109 -114 57
-13 138 50 156 121 9 35 -15 103 -49 140 -37 40 -79 54 -122 43z m74 -94 c39
-45 48 -81 30 -114 -10 -18 -25 -27 -47 -29 -65 -6 -124 97 -88 153 25 38 66
34 105 -10z"/>
</g>
</svg>
